# xmcd
#
# Track frame offsets:
#	150
#	11160
#	29125
#	45957
#	60707
#	71675
#	90956
#	105767
#	124240
#	143767
#	163624
#	190107
#	201286
#	215735
#	234968
#
# Disc length: 3328 seconds
#
# Revision: 0
# Processed by: cddbd v1.5.2PL0 Copyright (c) Steve Scherf et al.
# Submitted via: EasyCDDAExtractor 10.0.2.1
#
DISCID=cb0cfe0f
DTITLE=Various Artist - Elvis In Nederland
DYEAR=2010
DGENRE=
TTITLE0=Bennie Jolink - (Let Me Be Your) Teddy Bear
TTITLE1=JW Roy - True Love Travels On A Gravel Road
TTITLE2=Blue Grass Boogiemen - Blue Moon Of Kentucky
TTITLE3=Erwin Nijhoff - In The Ghetto
TTITLE4=George Baker - One Night Of Sin
TTITLE5=Denise Jannah - Crying In The Chapel
TTITLE6=Bob Fosko - Return To Sender
TTITLE7=Birdcatcher - When It Rains, It Really Pours
TTITLE8=Arthur Ebeling - Mystery Train
TTITLE9=Frédérique Spigt - Suspicious Minds
TTITLE10=Thom Hoffman - Heartbreak Hotel
TTITLE11=Vincent Bijlo - Hound Dog
TTITLE12=Bintangs - Burning Love
TTITLE13=Roosbeef - Are You Lonesome Tonight?
TTITLE14=? - ?
EXTD=
EXTT0=
EXTT1=
EXTT2=
EXTT3=
EXTT4=
EXTT5=
EXTT6=
EXTT7=
EXTT8=
EXTT9=
EXTT10=
EXTT11=
EXTT12=
EXTT13=
EXTT14=
PLAYORDER=
